<svg width="141" height="34" viewBox="0 0 141 34" fill="none" xmlns="http://www.w3.org/2000/svg">
<path d="M31.5571 7.85334H39.6179L46.4134 21.8454L53.1728 7.85334H61.2335V33.0679H54.6187V18.1046L48.8352 30.5861H43.9554L38.172 18.1046V33.0679H31.5571V7.85334ZM77.1591 7.38574C79.7617 7.38574 82.1172 7.94925 84.2257 9.0763C86.3343 10.2033 87.985 11.756 89.1778 13.7343C90.3707 15.7127 90.9671 17.9367 90.9671 20.4067C90.9671 22.9005 90.3707 25.1487 89.1778 27.1509C87.985 29.1532 86.3343 30.7239 84.2257 31.863C82.1172 33.002 79.7617 33.5715 77.1591 33.5715C74.5324 33.5715 72.1709 33.002 70.0744 31.863C67.9778 30.7239 66.3332 29.1532 65.1403 27.1509C63.9475 25.1487 63.3511 22.9005 63.3511 20.4067C63.3511 17.9367 63.9475 15.7127 65.1403 13.7343C66.3332 11.756 67.9778 10.2033 70.0744 9.0763C72.1709 7.94925 74.5324 7.38574 77.1591 7.38574ZM77.2675 13.6084C76.159 13.6084 75.1288 13.9082 74.177 14.5077C73.2252 15.1072 72.466 15.9285 71.8998 16.9716C71.3334 18.0147 71.0503 19.1717 71.0503 20.4426C71.0503 21.7135 71.3334 22.8766 71.8998 23.9317C72.466 24.9868 73.2252 25.8201 74.177 26.4315C75.1288 27.043 76.159 27.3488 77.2675 27.3488C78.3519 27.3488 79.358 27.043 80.2858 26.4315C81.2135 25.8201 81.9425 24.9928 82.4726 23.9497C83.0028 22.9065 83.2679 21.7376 83.2679 20.4426C83.2679 19.1717 83.0028 18.0147 82.4726 16.9716C81.9425 15.9285 81.2195 15.1072 80.3038 14.5077C79.3881 13.9082 78.376 13.6084 77.2675 13.6084ZM104.182 7.85334C106.881 7.85334 109.26 8.3749 111.321 9.41801C113.381 10.4611 114.978 11.9359 116.11 13.8422C117.243 15.7487 117.809 17.9487 117.809 20.4426C117.809 22.9365 117.231 25.1427 116.074 27.061C114.918 28.9794 113.291 30.4601 111.194 31.5032C109.098 32.5464 106.676 33.0679 103.929 33.0679H93.0846V7.85334H104.182ZM104.399 27.2049C106.109 27.2049 107.495 26.5934 108.555 25.3704C109.616 24.1475 110.146 22.5289 110.146 20.5146C110.146 18.5003 109.58 16.8697 108.447 15.6228C107.314 14.3758 105.844 13.7523 104.037 13.7523H100.603V27.2049H104.399ZM119.927 7.85334H140.638V13.6084H127.445V17.5651H139.41V23.3202H127.445V27.3128H141V33.0679H119.927V7.85334Z" fill="black"/>
<path d="M1.13778 18V4.90909H3.8608V9.83097H3.94389C4.06321 9.56676 4.2358 9.2983 4.46165 9.02557C4.69176 8.74858 4.99006 8.51847 5.35653 8.33523C5.72727 8.14773 6.1875 8.05398 6.73722 8.05398C7.45313 8.05398 8.11364 8.24148 8.71875 8.61648C9.32386 8.98722 9.80753 9.54759 10.1697 10.2976C10.532 11.0433 10.7131 11.9787 10.7131 13.1037C10.7131 14.1989 10.5362 15.1236 10.1825 15.8778C9.8331 16.6278 9.35582 17.1967 8.75071 17.5845C8.14986 17.968 7.47656 18.1598 6.73082 18.1598C6.20242 18.1598 5.75284 18.0724 5.3821 17.8977C5.01562 17.723 4.7152 17.5036 4.48082 17.2393C4.24645 16.9709 4.06747 16.7003 3.94389 16.4276H3.82244V18H1.13778ZM3.80327 13.0909C3.80327 13.6747 3.88423 14.1839 4.04616 14.6186C4.2081 15.0533 4.44247 15.392 4.74929 15.6349C5.05611 15.8736 5.42898 15.9929 5.8679 15.9929C6.31108 15.9929 6.68608 15.8714 6.9929 15.6286C7.29972 15.3814 7.53196 15.0405 7.68963 14.6058C7.85156 14.1669 7.93253 13.6619 7.93253 13.0909C7.93253 12.5241 7.85369 12.0256 7.69602 11.5952C7.53835 11.1648 7.30611 10.8281 6.99929 10.5852C6.69247 10.3423 6.31534 10.2209 5.8679 10.2209C5.42472 10.2209 5.04972 10.3381 4.7429 10.5724C4.44034 10.8068 4.2081 11.1392 4.04616 11.5696C3.88423 12 3.80327 12.5071 3.80327 13.0909ZM13.8947 21.6818C13.5495 21.6818 13.2257 21.6541 12.9231 21.5987C12.6248 21.5476 12.3777 21.4815 12.1816 21.4006L12.7953 19.3679C13.1149 19.4659 13.4025 19.5192 13.6582 19.5277C13.9181 19.5362 14.1419 19.4766 14.3294 19.3487C14.5211 19.2209 14.6767 19.0036 14.796 18.6967L14.9558 18.2812L11.4338 8.18182H14.2974L16.3301 15.392H16.4324L18.4842 8.18182H21.367L17.551 19.0611C17.3677 19.5895 17.1184 20.0497 16.8031 20.4418C16.492 20.8381 16.0978 21.1428 15.6206 21.3558C15.1433 21.5732 14.568 21.6818 13.8947 21.6818Z" fill="black"/>
</svg>
